<?xml version="1.0" encoding="utf-8"?>
<!-- Generator: Adobe Illustrator 21.1.0, SVG Export Plug-In . SVG Version: 6.00 Build 0)  -->
<svg version="1.1" id="Layer_1" xmlns="http://www.w3.org/2000/svg" xmlns:xlink="http://www.w3.org/1999/xlink" x="0px" y="0px"
	 viewBox="0 0 432 216" style="enable-background:new 0 0 432 216;" xml:space="preserve">
<style type="text/css">
	.st0{fill:#8E9090;}
	.st1{fill:#0E5640;}
	.st2{fill:#95D600;}
	.st3{fill:url(#SVGID_1_);}
	.st4{opacity:0.61;fill:url(#SVGID_2_);}
	.st5{fill:url(#SVGID_3_);}
	.st6{fill:url(#SVGID_4_);}
	.st7{fill:#80BC41;}
	.st8{opacity:0.55;fill:url(#SVGID_5_);}
	.st9{fill:#4D9D45;}
	.st10{fill:url(#SVGID_6_);}
	.st11{fill:url(#SVGID_7_);}
	.st12{fill:#231F20;}
</style>
<path class="st0" d="M416.2,55.3c0-3.2-1.8-6.2-4.5-7.8l-16.3-9.3c-1.2-0.7-2.6-1.1-4.1-1.1c0,0,0,0-0.1,0c0,0-0.1,0-0.1,0
	c0,0-0.1,0-0.1,0c0,0-0.1,0-0.1,0c0,0-0.1,0-0.1,0c0,0-0.1,0-0.1,0c0,0-0.1,0-0.1,0c0,0,0,0,0,0c0,0,0,0,0,0c-1.5,0-3,0.4-4.2,1.2
	l-16.2,9.5c-1.2,0.7-2.3,1.7-3,2.9c0,0-0.1,0.1-0.1,0.1v0c0,0-0.1,0.1-0.1,0.1c0,0,0,0.1,0,0.1c0,0,0,0,0,0
	c-0.8,1.4-1.2,2.9-1.2,4.6l0.1,18.7c0,3.2,1.8,6.2,4.5,7.8l16.3,9.3c1.4,0.8,2.9,1.2,4.5,1.2c1.6,0,3.2-0.4,4.5-1.2l16.2-9.5
	c2.8-1.6,4.5-4.6,4.5-7.8L416.2,55.3z M413,79.1L392.4,91c-0.5,0.1-0.9,0.1-1.4,0.1l-16.2-11.2c-2.9-2-4.7-5.1-5-8.6l-0.5-6.5
	l-1-12.8c0.5-0.9,1.1-1.6,1.9-2.2l18.7-10.8c0.7-0.2,1.5-0.3,2.2-0.3c0.2,0,0.3,0,0.5,0l15.8,11c2.9,2,4.7,5.1,5,8.6l0.5,6.5
	l1.1,13.2C413.6,78.3,413.3,78.7,413,79.1z"/>
<g>
	<g>
		<path class="st1" d="M406.8,55.1c-2.5-4.2-17.1-16-18.3-18.9c-0.9-2.1-0.9-3.5-0.8-5.1c0-0.9-0.7-1.1-1-0.2
			c-0.3,0.8-0.6,1.6-0.9,2.4c-0.3,0.8-0.6,1.7-0.8,2.3c-1.5,5.1-0.7,7.7,5.8,12.8c0,0,0,0,0,0c0.3,0.3,0.6,0.5,1,0.8
			c1.8,1.5,10.1,7,10.8,14c0.9,7.8-7.5,19.5-8.4,19.7c-0.1,0-0.2,0-0.3,0c-1.9-0.2-9.3-3.9-12.9-9.3c-4.6-7.2-2.1-10.9,0.9-15.6
			c0.2-0.3,0.4-0.6,0.5-0.9c0.5,0.5,1,0.9,1.6,1.4c6,5,7.6,7.4,8,9.6c0.1,0.8-0.1,1.9-0.2,2.8c0,0,0,0.4,0.1,0.6
			c0,0,0.1,0.1,0.1,0.1c0.2,0.2,0.5,0.1,0.7-0.4c2.2-5.4,3.5-8.5,1.6-11.9c-0.3-0.6-0.7-1.2-1.2-1.7c-1.8-2.2-4.1-4.2-6.2-5.7
			c-2.3-1.7-5.8-5.3-7-6c-0.2-0.1-0.4-0.2-0.4,0c0.8,3.5-4.6,13.3-4.6,13.3s-0.2,0.4-0.5,1.1c-0.9,2.4-2.2,8.3,3,15.1
			c5.6,7.4,17.5,12.5,17.5,12.5c0,0,0,0,0,0c0.6-0.6,1.7-1.9,3.1-3.8C403.2,77.2,411.7,63.3,406.8,55.1z M392.2,62.9
			c0.2,0.4,0.4,0.7,0.5,1.1C392.6,63.6,392.4,63.2,392.2,62.9c-0.3-0.6-0.7-1.2-1.2-1.7C391.5,61.7,391.9,62.3,392.2,62.9z"/>
		<g>
			<g>
				<path class="st2" d="M394.5,58.3c-0.3-0.6-0.7-1.2-1.2-1.8c-1.8-2.2-4.2-4.2-6.3-5.8c-2.3-1.7-5.8-5.4-7.1-6
					c3.3,2.2,4.1,4.6,3.9,6.9c-0.1,0.5-0.2,1.1-0.3,1.6c0.5,0.4,0.9,0.8,1.4,1.1c2.1,1.6,4.5,3.6,6.3,5.8c0.5,0.6,0.9,1.2,1.2,1.7
					c1.5,2.6,1.1,5.1-0.3,8.7c0,0,0.1,0.1,0.1,0.1c0.2,0.2,0.5,0.1,0.7-0.4C395.1,64.9,396.4,61.7,394.5,58.3z"/>
			</g>
		</g>
		<g>
			<g>
				
					<radialGradient id="SVGID_1_" cx="277.1778" cy="113.3013" r="28.9086" gradientTransform="matrix(0.9199 0.3921 -0.3921 0.9199 177.8958 -163.4281)" gradientUnits="userSpaceOnUse">
					<stop  offset="0" style="stop-color:#80B140"/>
					<stop  offset="1" style="stop-color:#389A47"/>
				</radialGradient>
				<path class="st3" d="M400.8,74.1c5.1-9.4,4.2-12.7,3.5-14.9c-0.7-2.2-1.5-6.3-12.5-14.4c-8-5.9-4.8-15.4-6.1-12.9
					c-0.3,0.9-0.6,1.7-0.8,2.3c-1.5,5.2-0.7,7.8,5.9,13c0,0,0,0,0,0c0.3,0.3,0.7,0.5,1,0.8c1.8,1.5,10.2,7.1,11,14.1
					c0.9,7.9-7.6,19.7-8.5,19.9c-0.1,0-0.2,0-0.3,0C395.7,82.5,396.7,81.7,400.8,74.1z"/>
			</g>
			
				<radialGradient id="SVGID_2_" cx="277.1778" cy="113.3013" r="28.9086" gradientTransform="matrix(0.9199 0.3921 -0.3921 0.9199 177.8958 -163.4281)" gradientUnits="userSpaceOnUse">
				<stop  offset="0" style="stop-color:#80B140"/>
				<stop  offset="1" style="stop-color:#389A47"/>
			</radialGradient>
			<path class="st4" d="M400.8,74.1c5.1-9.4,4.2-12.7,3.5-14.9c-0.7-2.2-1.5-6.3-12.5-14.4c-8-5.9-4.8-15.4-6.1-12.9
				c-0.3,0.9-0.6,1.7-0.8,2.3c-1.5,5.2-0.7,7.8,5.9,13c0,0,0,0,0,0c0.3,0.3,0.7,0.5,1,0.8c1.8,1.5,10.2,7.1,11,14.1
				c0.9,7.9-7.6,19.7-8.5,19.9c-0.1,0-0.2,0-0.3,0C395.7,82.5,396.7,81.7,400.8,74.1z"/>
		</g>
		<g>
			
				<linearGradient id="SVGID_3_" gradientUnits="userSpaceOnUse" x1="279.9258" y1="104.3536" x2="307.9437" y2="141.6238" gradientTransform="matrix(0.9199 0.3921 -0.3921 0.9199 177.8958 -163.4281)">
				<stop  offset="0" style="stop-color:#95C83D"/>
				<stop  offset="0.1919" style="stop-color:#91C73E"/>
				<stop  offset="0.3967" style="stop-color:#84C43F"/>
				<stop  offset="0.6075" style="stop-color:#6FC042"/>
				<stop  offset="0.821" style="stop-color:#51BA46"/>
				<stop  offset="1" style="stop-color:#32B34A"/>
			</linearGradient>
			<path class="st5" d="M395.5,85.2C395.5,85.2,395.5,85.2,395.5,85.2c0.8-0.4,1.9-1.1,2.7-1.8c5.2-7,13.7-21,8.9-29.4
				c-4.7-8.2-17.1-14.5-18.6-19.2c-0.7-2.2-0.9-3.5-0.8-5.2c0-0.9-0.7-1.1-1-0.2c-0.3,0.8-0.6,1.6-0.9,2.4c1.3-2.4-1.9,7,6.1,12.9
				c11,8.1,11.8,12.2,12.5,14.4c0.7,2.2,1.6,5.5-3.5,14.9c-3.9,7.2-5,8.3-6.6,8C395.2,83.1,395.5,84.2,395.5,85.2z"/>
		</g>
		<g>
			
				<linearGradient id="SVGID_4_" gradientUnits="userSpaceOnUse" x1="267.0534" y1="127.9353" x2="297.6575" y2="127.9353" gradientTransform="matrix(0.9199 0.3921 -0.3921 0.9199 177.8958 -163.4281)">
				<stop  offset="0" style="stop-color:#87C440"/>
				<stop  offset="0.385" style="stop-color:#7DC142"/>
				<stop  offset="1" style="stop-color:#64BB46"/>
			</linearGradient>
			<path class="st6" d="M375,60.9c-0.4,3,1.6,12.2,8.3,17.3c6.1,4.7,10.3,6.7,12.2,7c0-1-0.3-2.1-1.3-3.1c-0.1,0-0.2,0-0.3-0.1
				c-2-0.2-9.5-3.9-13-9.4c-4.7-7.3-2.1-11.1,0.9-15.8c1.7-2.9,4.3-7.8-1.9-12c-0.2-0.1-0.4-0.2-0.4,0c0.8,3.6-4.7,13.5-4.7,13.5
				s-0.2,0.4-0.5,1.1C374.8,58.6,375.2,58.9,375,60.9z"/>
		</g>
		<g>
			<path class="st7" d="M395.5,85.2c0,0.7-0.2,1.5-0.5,2.1c0.6-0.6,1.8-2,3.2-3.8C397.4,84.1,396.3,84.8,395.5,85.2
				C395.5,85.2,395.5,85.2,395.5,85.2z"/>
		</g>
		
			<linearGradient id="SVGID_5_" gradientUnits="userSpaceOnUse" x1="297.6575" y1="143.0916" x2="299.4532" y2="143.0916" gradientTransform="matrix(0.9199 0.3921 -0.3921 0.9199 177.8958 -163.4281)">
			<stop  offset="0" style="stop-color:#00954C"/>
			<stop  offset="1" style="stop-color:#68B245"/>
		</linearGradient>
		<path class="st8" d="M395.5,85.2c0,0.7-0.2,1.5-0.5,2.1c0.6-0.6,1.8-2,3.2-3.8C397.4,84.1,396.3,84.8,395.5,85.2
			C395.5,85.2,395.5,85.2,395.5,85.2z"/>
		<g>
			<path class="st9" d="M377.3,74.6C383,82.1,395,87.3,395,87.3c0,0,0,0,0,0c0.2-0.6,0.4-1.3,0.5-2.1c-1.8-0.3-6-2.3-12.2-7
				c-6.7-5.1-8.7-14.3-8.3-17.3c0.2-1.9-0.2-2.3-0.7-1.6C373.4,61.7,372,67.7,377.3,74.6z"/>
		</g>
		
			<radialGradient id="SVGID_6_" cx="279.5285" cy="134.8202" r="16.99" fx="272.968" fy="132.7275" gradientTransform="matrix(0.6763 0.7366 -0.3482 0.3196 240.0802 -178.8094)" gradientUnits="userSpaceOnUse">
			<stop  offset="0" style="stop-color:#7FC142"/>
			<stop  offset="0.2855" style="stop-color:#6DBE44"/>
			<stop  offset="0.8547" style="stop-color:#3FB549"/>
			<stop  offset="1" style="stop-color:#32B34A"/>
		</radialGradient>
		<path class="st10" d="M377.3,74.6C383,82.1,395,87.3,395,87.3c0,0,0,0,0,0c0.2-0.6,0.4-1.3,0.5-2.1c-1.8-0.3-6-2.3-12.2-7
			c-6.7-5.1-8.7-14.3-8.3-17.3c0.2-1.9-0.2-2.3-0.7-1.6C373.4,61.7,372,67.7,377.3,74.6z"/>
		
			<radialGradient id="SVGID_7_" cx="280.0313" cy="124.3982" r="16.0097" fx="279.7054" fy="124.3906" gradientTransform="matrix(0.5919 0.806 -0.3136 0.2303 259.9922 -193.5507)" gradientUnits="userSpaceOnUse">
			<stop  offset="0" style="stop-color:#7DB040"/>
			<stop  offset="0.7806" style="stop-color:#56A545"/>
		</radialGradient>
		<path class="st11" d="M392.3,61.9c-0.3-0.6-0.7-1.2-1.2-1.7c-1.8-2.2-4.2-4.2-6.3-5.8c-0.4-0.3-0.9-0.7-1.4-1.1
			c-0.4,1.4-1.1,2.6-1.7,3.6c0.2-0.3,0.4-0.6,0.5-0.9c0.5,0.5,1,0.9,1.6,1.4c6,5.1,7.7,7.5,8.1,9.8c0.1,0.8-0.1,1.9-0.2,2.9
			c0,0,0,0.4,0.1,0.6c0.3,0.3,0.8-0.7,1-2.3C393.5,65,393.3,63.8,392.3,61.9z"/>
	</g>
</g>
<g>
	<path class="st12" d="M73.1,136.2V94.2l-22.4,42.1h-3.1L25,94.2v42.1h-6.2V83.5h7.8l22.8,42.9L72,83.5h7.6v52.7H73.1z"/>
	<path class="st12" d="M137.8,136.2l-7.9-14.9H98.1l-7.7,14.9h-7.5l27.9-52.7h6.3l28.4,52.7H137.8z M114,90.8L100.7,116h26.7
		L114,90.8z"/>
	<path class="st12" d="M196.1,136.2l-21.8-23.2l-21.8,23.2h-8.2l25.4-26.9l-25-25.8h8.7l21.1,22.2l21-22.2h8.2l-24.9,26l25.4,26.7
		H196.1z"/>
	<path class="st2" d="M255.8,136.2l-6.9-13.8h-28.4l-6.9,13.8h-10.8l27.4-52.7h9.2l27.8,52.7H255.8z M234.8,94l-10.7,20.9h21.2
		L234.8,94z"/>
	<path class="st2" d="M276.3,136.2v-44h-19.9v-8.7h49.3v8.7h-19.9v44H276.3z"/>
	<path class="st2" d="M309.4,136.2V83.5h26.3c12.7,0,19.6,5,19.6,17.3c0,12.4-6.7,17.9-19.6,17.9h-16.2v17.5H309.4z M334.9,110.3
		c7.1,0,11.3-2.4,11.3-9.2c0-6.8-4.3-8.8-11.3-8.8h-15.4v18H334.9z"/>
</g>
<g>
	<path d="M348.9,126.3h7.9v0.8h-3.5v9.2h-0.9v-9.2h-3.5V126.3z"/>
	<path d="M358.5,126.3h1.4l3.5,8.8l3.4-8.8h1.4v10h-1v-8.6h0l-3.4,8.6h-0.9l-3.4-8.6h0v8.6h-0.9V126.3z"/>
</g>
<g>
	<path d="M18.4,155.7h13.4c4.2,0,8,1.5,8,6.6c0,2.6-1.6,5.2-4.8,6v0.1c3.5,0.6,4.2,2.8,4.4,6.8c0.1,1.5,0.3,4.5,0.9,5.1h-2.8
		c-0.4-0.5-0.6-2.3-0.7-5c-0.1-4.3-1.7-5.8-6-5.8h-9.9v10.8h-2.5V155.7z M20.9,167.1h10.8c2.8,0,5.3-1,5.3-4.8
		c0-3.6-2.7-4.3-5.1-4.3h-11V167.1z"/>
	<path d="M45.8,155.7h2.5v24.6h-2.5V155.7z"/>
	<path d="M55.2,155.7h14c4.8,0,6.8,2.7,6.8,6.2c0,2.4-1.3,4.6-4.2,5.3v0.1c3.2,0.5,5.2,2.9,5.2,6c0,5.1-4.3,7-8.1,7H55.2V155.7z
		 M57.8,166.4h10.1c3.4,0,5.6-1.1,5.6-4.4c0-3-2-4-4.8-4H57.8V166.4z M57.8,177.9h10.7c3.3,0,5.8-1.3,5.8-4.7c0-3.5-2.2-4.5-5.2-4.5
		H57.8V177.9z"/>
	<path d="M95.2,155.1c7,0,13.3,4.2,13.3,12.9c0,8.7-6.4,12.9-13.3,12.9c-7,0-13.3-4.2-13.3-12.9C81.8,159.3,88.2,155.1,95.2,155.1z
		 M95.2,178.6c5.4,0,10.6-3.2,10.6-10.6c0-7.4-5.2-10.6-10.6-10.6c-5.4,0-10.6,3.2-10.6,10.6C84.6,175.4,89.8,178.6,95.2,178.6z"/>
	<path d="M138.5,170.9c-0.6,5.5-5.1,10-12.1,10c-8,0-13.1-5-13.1-12.9c0-5.6,3.5-12.9,13.1-12.9c5.4,0,11.2,2.4,11.9,8.9h-2.5
		c-0.8-4.7-5-6.6-9.4-6.6c-6.1,0-10.3,3.4-10.3,10.6c0,5.5,2.9,10.6,10.3,10.6c5.8,0,8.7-3,9.6-7.6H138.5z"/>
	<path d="M144.7,155.7h19.5v2.3h-17v8.3h16.4v2.3h-16.4v9.2h17.3v2.3h-19.8V155.7z"/>
	<path d="M170.2,155.7h2.5v24.6h-2.5V155.7z"/>
	<path d="M179.6,155.7h3.1l17.2,21h0.1v-21h2.5v24.6h-3l-17.3-21h-0.1v21h-2.5V155.7z"/>
	<path d="M209.5,155.7H229v2.3h-17v8.3h16.4v2.3H212v9.2h17.3v2.3h-19.8V155.7z"/>
	<path d="M246.3,155.7h18.4v2.3h-15.9v8.3h15.1v2.3h-15.1v11.6h-2.5V155.7z"/>
	<path d="M291.5,170.8c0,4.5-1.2,10.1-11,10.1c-9.7,0-11-5.6-11-10.1v-15.1h2.5v15.1c0,6.4,4.2,7.8,8.4,7.8c4.3,0,8.4-1.3,8.4-7.8
		v-15.1h2.5V170.8z"/>
	<path d="M298.7,155.7h19.5v2.3h-17v8.3h16.4v2.3h-16.4v9.2h17.3v2.3h-19.8V155.7z"/>
	<path d="M323.9,155.7h2.5v22.2H342v2.3h-18.1V155.7z"/>
</g>
</svg>
