<?xml version="1.0" encoding="utf-8"?>
<!-- Generator: Adobe Illustrator 21.1.0, SVG Export Plug-In . SVG Version: 6.00 Build 0)  -->
<svg version="1.1" id="Layer_1" xmlns="http://www.w3.org/2000/svg" xmlns:xlink="http://www.w3.org/1999/xlink" x="0px" y="0px"
	 viewBox="0 0 432 216" style="enable-background:new 0 0 432 216;" xml:space="preserve">
<style type="text/css">
	.st0{fill:none;}
	.st1{fill:#AC0033;}
	.st2{fill:#AEADAE;}
	.st3{fill:#ED1D32;}
	.st4{fill:#231F20;}
</style>
<g>
	<path class="st0" d="M380.2,88.6c-0.1,0-0.3,0-0.4,0C380,88.6,380.1,88.6,380.2,88.6z"/>
	<path class="st0" d="M380.9,49.7L380.9,49.7l-4.1-2.4c-0.3-0.2-0.7-0.2-1,0l-11.6,7.2c-0.3,0.2-0.5,0.5-0.5,0.8l0.1,15.6
		c0,0.4,0.2,0.7,0.5,0.9l15.4,8.4c0.3,0.2,0.7,0.2,1,0l14.8-8.6c0.3-0.2,0.5-0.5,0.5-0.9l-0.2-7.6c0-0.8-0.8-1.2-1.5-0.8l-7.5,4.6
		c-0.6,0.4-1.4,0-1.5-0.7l-1.4-5.9c-0.1-0.4,0.1-0.8,0.4-1l6.5-4l2.9-1.8l4.5-2.7c-0.8-1.1-1.7-2.1-2.9-2.9l-13.4-9.3l0.5,10
		C382.4,49.5,381.6,50.1,380.9,49.7z"/>
	<path class="st0" d="M379.3,88.6C379.4,88.6,379.4,88.6,379.3,88.6C379.4,88.6,379.4,88.6,379.3,88.6L379.3,88.6z"/>
	<path class="st0" d="M401.4,76.2c0,0-0.1,0.1-0.1,0.1C401.3,76.3,401.4,76.3,401.4,76.2z"/>
	<path class="st0" d="M400.9,76.9C400.9,76.9,400.9,76.9,400.9,76.9C400.9,76.9,400.9,76.9,400.9,76.9L400.9,76.9z"/>
	<path class="st0" d="M380.7,88.5L380.7,88.5C380.7,88.5,380.7,88.5,380.7,88.5C380.7,88.5,380.7,88.5,380.7,88.5z"/>
	<path class="st0" d="M401.7,75.7L401.7,75.7C401.7,75.8,401.7,75.8,401.7,75.7C401.7,75.8,401.7,75.8,401.7,75.7z"/>
	<path class="st1" d="M400.1,56.4c-0.2-2-0.9-3.9-2-5.5l-4.5,2.7l-2.9,1.8l-6.5,4c-0.3,0.2-0.5,0.6-0.4,1l1.4,5.9
		c0.1,0.7,0.9,1,1.5,0.7l7.5-4.6c0.6-0.4,1.5,0.1,1.5,0.8l0.2,7.6c0,0.4-0.2,0.7-0.5,0.9l-14.8,8.6c-0.3,0.2-0.7,0.2-1,0l-15.4-8.4
		c-0.3-0.2-0.5-0.5-0.5-0.9l-0.1-15.6c0-0.3,0.2-0.7,0.5-0.8l11.6-7.2c0.3-0.2,0.7-0.2,1,0l4.1,2.4l0,0c0.7,0.4,1.6-0.2,1.5-1
		l-0.5-10l-2.1-1.4c-0.1,0-0.3,0-0.4,0c-0.7,0-1.5,0.1-2.2,0.3l-18.3,10.6c-0.8,0.6-1.4,1.4-1.8,2.2l1,12.5l0.5,6.4
		c0.3,3.4,2.1,6.5,4.9,8.4l15.9,11c0,0,0,0,0.1,0c0.1,0,0.3,0,0.4,0c0.1,0,0.3,0,0.4,0c0.1,0,0.3,0,0.4,0c0,0,0,0,0.1,0l20.1-11.6
		c0,0,0,0,0,0c0.1-0.2,0.3-0.3,0.4-0.5c0,0,0.1-0.1,0.1-0.1c0.1-0.1,0.2-0.3,0.3-0.4c0,0,0-0.1,0.1-0.1l-1.1-12.9L400.1,56.4z"/>
	<path class="st2" d="M401.3,76.4c-0.1,0.2-0.2,0.3-0.4,0.5C401,76.7,401.2,76.6,401.3,76.4z"/>
	<path class="st2" d="M401.7,75.8c-0.1,0.1-0.2,0.3-0.3,0.4C401.5,76.1,401.6,76,401.7,75.8z"/>
	<path class="st2" d="M379.8,88.6c-0.1,0-0.3,0-0.4,0C379.5,88.6,379.7,88.6,379.8,88.6z"/>
	<path class="st3" d="M358.5,69.2l-0.5-6.4l-1-12.5c0.5-0.8,1.1-1.6,1.8-2.2l18.3-10.6c0.7-0.2,1.4-0.3,2.2-0.3c0.1,0,0.3,0,0.4,0
		l2.1,1.4l-0.1-1c-0.8-0.3-1.6-0.4-2.5-0.4c-1.3,0-2.6,0.3-3.7,1l-15.9,9.3c-2.3,1.3-3.7,3.8-3.6,6.4l0.1,18.4
		c0,2.6,1.4,5.1,3.7,6.4l16,9.1c1.1,0.6,2.3,0.9,3.5,0.9l-15.9-11C360.6,75.7,358.8,72.6,358.5,69.2z"/>
	<path class="st3" d="M402.6,53.6c0-1.6-0.6-3.2-1.5-4.5l-2.9,1.7c1.1,1.6,1.8,3.5,2,5.5l0.5,6.4l1.1,12.9c0.7-1.1,1-2.4,1-3.7
		L402.6,53.6z"/>
	<path class="st2" d="M404.1,53.6c0-3.1-1.7-6.1-4.5-7.6l-16-9.1c-1.2-0.7-2.6-1.1-4-1.1c0,0,0,0-0.1,0c0,0-0.1,0-0.1,0
		c0,0-0.1,0-0.1,0c0,0-0.1,0-0.1,0c0,0-0.1,0-0.1,0c0,0-0.1,0-0.1,0c0,0-0.1,0-0.1,0c0,0,0,0,0,0c0,0,0,0,0,0
		c-1.5,0-2.9,0.4-4.2,1.2L359,46.2c-1.2,0.7-2.2,1.7-3,2.8c0,0,0,0.1-0.1,0.1l0,0c0,0-0.1,0.1-0.1,0.1c0,0,0,0.1,0,0.1c0,0,0,0,0,0
		c-0.8,1.3-1.2,2.9-1.2,4.5l0.1,18.4c0,3.1,1.7,6.1,4.5,7.6l16,9.1c1.3,0.8,2.8,1.2,4.4,1.2c1.6,0,3.1-0.4,4.5-1.2l15.9-9.3
		c2.7-1.6,4.4-4.5,4.4-7.7L404.1,53.6z M401.7,75.7C401.7,75.8,401.7,75.8,401.7,75.7c-0.1,0.2-0.2,0.4-0.3,0.5c0,0-0.1,0.1-0.1,0.1
		c-0.1,0.2-0.2,0.3-0.4,0.5c0,0,0,0,0,0l0,0l-20.1,11.6l0,0c0,0,0,0-0.1,0c-0.1,0-0.3,0-0.4,0c-0.1,0-0.3,0-0.4,0
		c-0.1,0-0.3,0-0.4,0c0,0,0,0-0.1,0l0,0c-1.2,0-2.4-0.3-3.5-0.9l-16-9.1c-2.3-1.3-3.7-3.7-3.7-6.4l-0.1-18.4c0-2.6,1.4-5.1,3.6-6.4
		l15.9-9.3c1.1-0.7,2.4-1,3.7-1c0.8,0,1.7,0.2,2.5,0.4l0.1,1l13.4,9.3c1.1,0.8,2.1,1.8,2.9,2.9l2.9-1.7c1,1.3,1.5,2.8,1.5,4.5
		l0.1,18.4C402.7,73.3,402.4,74.6,401.7,75.7L401.7,75.7z"/>
	<path class="st2" d="M380.7,88.6c-0.1,0-0.3,0-0.4,0C380.4,88.6,380.5,88.6,380.7,88.6z"/>
</g>
<g>
	<path class="st4" d="M79.8,137.4V96.1l-21.9,41.2h-3L32.6,96.1v41.2h-6.1V85.7h7.6l22.3,42.1l22.2-42.1h7.4v51.7H79.8z"/>
	<path class="st4" d="M143.2,137.4l-7.7-14.6h-31.1l-7.6,14.6h-7.4l27.4-51.7h6.2l27.8,51.7H143.2z M119.9,92.8l-13,24.7H133
		L119.9,92.8z"/>
	<path class="st4" d="M200.4,137.4L179,114.7l-21.3,22.7h-8.1l24.9-26.4L150,85.7h8.5l20.7,21.8l20.5-21.8h8.1l-24.4,25.5l24.9,26.2
		H200.4z"/>
	<path class="st1" d="M254.6,117.1H235v-8h29.1v19.8c-5,7.5-17.2,9.7-24.2,9.7c-16.8,0-30.2-8.4-30.2-26.9
		c0-16.5,10.5-26.9,30.1-26.9c12.1,0,19,3,24,8.4l-6.1,7.1c-3.5-3.9-7.6-6.8-18.7-6.8c-12.7,0-19.8,6.4-19.8,18
		c0,12.3,8.7,18.2,21.1,18.2c6.6,0,11.6-1.6,14.3-4.4V117.1z"/>
	<path class="st1" d="M315.1,137.4l-18.6-20.8l-18.6,20.8h-11.6l23.8-26.5l-23.4-25.2H279l17.9,19.7l17.7-19.7h11.6l-23.2,25.4
		l23.8,26.2H315.1z"/>
	<path class="st1" d="M329.5,137.4V85.7h9.4v43H371v8.7H329.5z"/>
</g>
<g>
	<path d="M376.3,127.6h7.8v0.8h-3.4v9h-0.9v-9h-3.4V127.6z"/>
	<path d="M385.8,127.6h1.4l3.4,8.6l3.4-8.6h1.4v9.8h-0.9v-8.5h0l-3.3,8.5h-0.9l-3.4-8.5h0v8.5h-0.9V127.6z"/>
</g>
<g>
	<path d="M42.1,164.7c0,3.4-0.9,7.7-8.4,7.7c-7.4,0-8.4-4.3-8.4-7.7v-11.5h1.9v11.5c0,4.9,3.2,5.9,6.4,5.9c3.3,0,6.4-1,6.4-5.9
		v-11.5h1.9V164.7z"/>
	<path d="M47.3,153.2h2.3l13.1,16h0.1v-16h1.9V172h-2.3l-13.2-16h-0.1v16h-1.9V153.2z"/>
	<path d="M70,153.2h1.9V172H70V153.2z"/>
	<path d="M95.3,173.6l-3.2-2.5c-1.6,0.9-3.5,1.3-5.4,1.3c-5.3,0-10.2-3.2-10.2-9.9c0-6.6,4.9-9.9,10.2-9.9s10.2,3.2,10.2,9.9
		c0,3.4-1.3,6-3.3,7.6l2.8,2.2L95.3,173.6z M89,166.7l2.9,2.3c1.7-1.3,2.8-3.3,2.8-6.4c0-5.7-4-8.1-8.1-8.1c-4.1,0-8.1,2.4-8.1,8.1
		c0,5.7,4,8.1,8.1,8.1c1.3,0,2.6-0.2,3.8-0.8L88,168L89,166.7z"/>
	<path d="M118.1,164.7c0,3.4-0.9,7.7-8.4,7.7c-7.4,0-8.4-4.3-8.4-7.7v-11.5h1.9v11.5c0,4.9,3.2,5.9,6.4,5.9c3.3,0,6.4-1,6.4-5.9
		v-11.5h1.9V164.7z"/>
	<path d="M123.5,153.2h14.9v1.8h-13v6.4H138v1.8h-12.5v7h13.2v1.8h-15.1V153.2z"/>
	<path d="M151.7,153.2h2.3l13.1,16h0.1v-16h1.9V172h-2.3l-13.2-16h-0.1v16h-1.9V153.2z"/>
	<path d="M186.8,166.3H177l-2.5,5.7h-2.1l8.5-18.8h2.3l8.5,18.8h-2.3L186.8,166.3z M181.9,155.2l-4.2,9.3h8.3L181.9,155.2z"/>
	<path d="M213.4,164.8c-0.4,4.2-3.9,7.6-9.3,7.6c-6.1,0-10-3.8-10-9.9c0-4.3,2.7-9.9,10-9.9c4.1,0,8.5,1.9,9.1,6.8h-1.9
		c-0.6-3.6-3.8-5-7.2-5c-4.7,0-7.9,2.6-7.9,8.1c0,4.2,2.2,8.1,7.9,8.1c4.5,0,6.7-2.3,7.3-5.8H213.4z"/>
	<path d="M226.7,153.2h14.1v1.8h-12.1v6.4h11.5v1.8h-11.5v8.8h-1.9V153.2z"/>
	<path d="M253.8,152.7c5.3,0,10.2,3.2,10.2,9.9c0,6.6-4.9,9.9-10.2,9.9s-10.2-3.2-10.2-9.9C243.6,156,248.4,152.7,253.8,152.7z
		 M253.8,170.7c4.1,0,8.1-2.4,8.1-8.1c0-5.7-4-8.1-8.1-8.1c-4.1,0-8.1,2.4-8.1,8.1C245.7,168.2,249.6,170.7,253.8,170.7z"/>
	<path d="M268.6,153.2h10.2c3.2,0,6.1,1.1,6.1,5.1c0,2-1.2,4-3.7,4.5v0.1c2.7,0.4,3.2,2.1,3.3,5.2c0.1,1.2,0.2,3.5,0.7,3.9h-2.1
		c-0.3-0.4-0.5-1.8-0.5-3.8c-0.1-3.3-1.3-4.4-4.5-4.4h-7.5v8.3h-1.9V153.2z M270.5,161.9h8.2c2.1,0,4-0.8,4-3.7
		c0-2.8-2.1-3.3-3.9-3.3h-8.4V161.9z"/>
	<path d="M308.9,153.2h2.8V172h-1.9v-16.2h-0.1l-8.3,16.2h-1.8l-8.3-16.2h-0.1V172h-1.9v-18.8h2.8l8.4,16.3L308.9,153.2z"/>
	<path d="M333.6,164.7c0,3.4-0.9,7.7-8.4,7.7c-7.4,0-8.4-4.3-8.4-7.7v-11.5h1.9v11.5c0,4.9,3.2,5.9,6.4,5.9c3.3,0,6.4-1,6.4-5.9
		v-11.5h1.9V164.7z"/>
	<path d="M338.8,153.2h1.9v17h11.9v1.8h-13.9V153.2z"/>
	<path d="M368.6,166.3h-9.9l-2.5,5.7H354l8.5-18.8h2.3l8.5,18.8h-2.3L368.6,166.3z M363.6,155.2l-4.2,9.3h8.3L363.6,155.2z"/>
</g>
</svg>
