<?xml version="1.0" encoding="utf-8"?>
<!-- Generator: Adobe Illustrator 21.1.0, SVG Export Plug-In . SVG Version: 6.00 Build 0)  -->
<svg version="1.1" id="Layer_1" xmlns="http://www.w3.org/2000/svg" xmlns:xlink="http://www.w3.org/1999/xlink" x="0px" y="0px"
	 viewBox="0 0 419.5 148.5" style="enable-background:new 0 0 419.5 148.5;" xml:space="preserve">
<style type="text/css">
	.st0{fill:#AEADAE;}
	.st1{fill:#008AAB;}
	.st2{fill:#231F20;}
</style>
<g>
	<path class="st0" d="M397.9,37.5c0-2.8-1.5-5.3-3.9-6.7l-14.1-8c-1.1-0.6-2.3-0.9-3.5-1c0,0,0,0-0.1,0c0,0,0,0-0.1,0
		c0,0-0.1,0-0.1,0c0,0-0.1,0-0.1,0c0,0-0.1,0-0.1,0c0,0-0.1,0-0.1,0c0,0-0.1,0-0.1,0c0,0,0,0,0,0c0,0,0,0,0,0c-1.3,0-2.6,0.4-3.7,1
		l-14,8.2c-1.1,0.6-2,1.5-2.6,2.5c0,0,0,0-0.1,0.1l0,0c0,0,0,0.1-0.1,0.1c0,0,0,0,0,0.1c0,0,0,0,0,0c-0.7,1.2-1.1,2.5-1.1,3.9
		l0.1,16.2c0,2.8,1.5,5.3,3.9,6.7l14.1,8c1.2,0.7,2.5,1,3.9,1c1.4,0,2.7-0.4,3.9-1.1l14-8.2c2.4-1.4,3.9-4,3.9-6.8L397.9,37.5z
		 M395,58l-17.8,10.3c-0.4,0.1-0.8,0.1-1.2,0.1L362,58.6c-2.5-1.7-4.1-4.4-4.3-7.4l-0.5-5.6l-0.9-11c0.4-0.7,1-1.4,1.6-1.9l16.1-9.3
		c0.6-0.2,1.3-0.3,1.9-0.3c0.1,0,0.3,0,0.4,0l13.7,9.5c2.5,1.7,4.1,4.4,4.3,7.4l0.5,5.6l0.9,11.4C395.6,57.3,395.3,57.7,395,58z"/>
	<path class="st0" d="M353.5,63.7c-2.3,0-4-0.9-5-2.6c-1.2-2.1,0.4-5.6,4.7-9.7c3.2-3.1,14.3-9.4,14.3-9.4s-10.5,8.2-13.3,11.7
		c-1.8,2.3-2.5,4.2-1.9,5.2c0.5,0.9,1.7,1.3,3.4,1.3c0.5,0,1,0,1.6-0.1l0.2,0l3.2,1.8l-1.4,0.5C357.1,63.2,355.1,63.7,353.5,63.7z"
		/>
	<path class="st0" d="M398.7,63.7c-1.7,0-3.8-0.3-6.3-1c-4.3-1.2-15.3-7.7-15.3-7.7s12.4,5,16.8,5.6c0.8,0.1,1.5,0.2,2.2,0.2
		c1.2,0,2.7-0.2,3.2-1.1c0.6-1.2,0.2-2.8-1.4-4.9l-0.1-0.2v-3.7l1.2,1c4.5,3.8,6,7.1,4.3,10.1C402.5,63.1,401,63.7,398.7,63.7
		L398.7,63.7z"/>
	<path class="st0" d="M380.1,22.8c-1.1-2.7-2.4-4.2-3.5-4.2c-1.4,0-2.6,1.3-3.6,3.7l-0.1,0.2l-3.2,1.8l0.3-1.5
		c1-5.8,3.2-8.7,6.6-8.7c2.5,0,4.6,3.2,6.1,8.9c1.1,4.4,1,17.1,1,17.1S381.7,26.9,380.1,22.8z"/>
	<path class="st1" d="M366.7,31.2c0-0.6-0.1-1.1-0.4-1.6c-0.6-1-1.6-1.6-2.7-1.6c-0.5,0-1.1,0.1-1.6,0.4c-0.3,0.2-0.5,0.4-0.8,0.6
		c-0.5-0.2-1-0.3-1.5-0.4c-2.4-0.7-4.5-1-6.3-1c-2.3,0-3.8,0.6-4.5,1.8c-1.7,2.9-0.2,6.3,4.3,10.1l1.2,1v-3.7l-0.1-0.2
		c-1.6-2.1-2.1-3.8-1.4-4.9c0.5-0.9,2-1.1,3.2-1.1c0.7,0,1.4,0.1,2.2,0.2c0.7,0.1,1.4,0.2,2.1,0.4c0,0.6,0.1,1.1,0.4,1.6
		c0.6,1,1.6,1.6,2.7,1.6c0.5,0,1.1-0.1,1.6-0.4c0.4-0.2,0.8-0.6,1-1c2.8,1.1,8.9,3.4,8.9,3.4S367.2,31.5,366.7,31.2z"/>
	<g>
		<path class="st0" d="M376.2,54c-0.8,0-1.5-0.7-1.5-1.5V41.7c0-0.5-0.4-0.8-0.8-0.8c-0.1,0-0.2,0-0.3,0.1l-0.3,0.2
			c-0.2,0.1-0.4,0.1-0.6,0.1c-0.6,0-1.1-0.3-1.4-0.9l0-0.1c-0.2-0.4-0.2-0.8-0.1-1.2c0.1-0.4,0.4-0.7,0.8-0.9l3.8-1.8
			c0.2-0.1,0.4-0.1,0.6-0.1h0.6c0.8,0,1.5,0.7,1.5,1.5v14.7c0,0.8-0.7,1.5-1.5,1.5H376.2z"/>
		<path class="st0" d="M375.1,52.5V41.7c0-0.8-0.9-1.4-1.7-1.1l-0.3,0.2c-0.6,0.3-1.3,0-1.5-0.6l0-0.1c-0.3-0.6,0-1.3,0.6-1.6
			l3.8-1.8c0.2-0.1,0.3-0.1,0.5-0.1h0.6c0.6,0,1.2,0.5,1.2,1.2v14.7c0,0.6-0.5,1.2-1.2,1.2h-0.8C375.6,53.7,375.1,53.1,375.1,52.5z"
			/>
	</g>
	<path class="st1" d="M368.3,61.1c-0.5,0.3-0.9,0.7-1.2,1.1c-0.6,1-0.6,2.2,0,3.1c0.3,0.5,0.7,0.9,1.1,1.2c0.3,0.2,0.6,0.3,0.9,0.4
		c0.1,0.5,0.2,1,0.3,1.5c0.6,2.5,1.3,4.5,2.2,6c1.1,2,2.4,3,3.8,3c3.4,0,5.6-2.9,6.6-8.7l0.3-1.5l-3.2,1.8l-0.1,0.2
		c-1,2.4-2.3,3.7-3.6,3.7c-1.1,0-2-1.2-2.6-2.3c-0.3-0.6-0.6-1.2-0.9-2c-0.2-0.6-0.5-1.3-0.7-2.1c0.5-0.3,0.9-0.7,1.2-1.2
		c0.6-1,0.6-2.2,0-3.1c-0.3-0.5-0.7-0.9-1.1-1.2c-0.4-0.2-0.9-0.4-1.3-0.4c-0.4-3-1.4-9.4-1.4-9.4S368.3,60.5,368.3,61.1z"/>
	<path class="st1" d="M393.2,44.6c0.5,0.3,1,0.4,1.6,0.4c1.1,0,2.2-0.6,2.7-1.6c0.3-0.5,0.4-1,0.4-1.6c0-0.3-0.1-0.7-0.2-1
		c0.4-0.3,0.7-0.7,1.1-1.1c1.8-1.8,3.2-3.4,4-4.9c1.1-2,1.4-3.6,0.7-4.8c-1.7-2.9-5.3-3.4-10.8-1.3l-1.4,0.5l3.2,1.8l0.2,0
		c2.6-0.3,4.3,0.1,5,1.2c0.5,0.9-0.1,2.3-0.7,3.4c-0.3,0.6-0.8,1.2-1.3,1.8c-0.4,0.5-0.9,1.1-1.4,1.6c-0.5-0.3-1-0.5-1.6-0.5
		c-1.1,0-2.2,0.6-2.7,1.6c-0.3,0.5-0.4,1-0.4,1.6c0,0.5,0.1,0.9,0.3,1.4c-2.3,1.9-7.4,6-7.4,6S392.8,45,393.2,44.6z"/>
</g>
<g>
	<path class="st2" d="M66.6,109.3V73l-19.3,36.4h-2.7L24.9,73v36.4h-5.4V63.7h6.7L46,100.9l19.6-37.1h6.6v45.6H66.6z"/>
	<path class="st2" d="M122.5,109.3l-6.8-12.9H88.2l-6.7,12.9H75l24.2-45.6h5.5l24.6,45.6H122.5z M102,70L90.4,91.8h23.1L102,70z"/>
	<path class="st2" d="M172.9,109.3l-18.8-20l-18.8,20h-7.1l22-23.3l-21.6-22.3h7.5l18.3,19.2l18.1-19.2h7.1L158,86.2l22,23.1H172.9z
		"/>
	<path class="st0" d="M207.9,110.4c-15,0-26.7-9.1-26.7-23.3S191.9,63,207.9,63c15.8,0,27,10,27,24.2S223.7,110.4,207.9,110.4z
		 M207.9,70.8c-10.6,0-18.3,6.4-18.3,16.3c0,9.9,8.1,15.6,18.3,15.6c10.7,0,18.4-5.7,18.4-15.6C226.3,77.2,218.6,70.8,207.9,70.8z"
		/>
	<path class="st0" d="M276.5,109.3l-28.4-32.1v32.1H240V63.7h8.4L276.5,97V63.7h8.1v45.6H276.5z"/>
	<path class="st0" d="M291,109.3V63.7h37.3v7.5h-29v11.4h25.8v6.5h-25.8v12.5H329v7.8H291z"/>
</g>
<g>
	<path d="M333,100.7h6.8v0.7h-3v7.9H336v-7.9h-3V100.7z"/>
	<path d="M341.3,100.7h1.2l3,7.6l3-7.6h1.2v8.6h-0.8v-7.5h0l-3,7.5h-0.8l-3-7.5h0v7.5h-0.8V100.7z"/>
</g>
<g>
	<path d="M17.8,121.4h7v0.9h-6v3.2h5.7v0.9h-5.7v4.4h-1V121.4z"/>
	<path d="M31.3,121.1c2.7,0,5.1,1.6,5.1,4.9c0,3.3-2.4,4.9-5.1,4.9c-2.7,0-5.1-1.6-5.1-4.9C26.2,122.8,28.6,121.1,31.3,121.1z
		 M31.3,130.1c2.1,0,4-1.2,4-4c0-2.8-2-4-4-4s-4,1.2-4,4C27.3,128.9,29.2,130.1,31.3,130.1z"/>
	<path d="M47.8,127.2c-0.2,2.1-1.9,3.8-4.6,3.8c-3,0-5-1.9-5-4.9c0-2.1,1.3-4.9,5-4.9c2,0,4.3,0.9,4.6,3.4h-1
		c-0.3-1.8-1.9-2.5-3.6-2.5c-2.3,0-3.9,1.3-3.9,4c0,2.1,1.1,4,3.9,4c2.2,0,3.3-1.1,3.7-2.9H47.8z"/>
	<path d="M58.5,127.1c0,1.7-0.5,3.9-4.2,3.9c-3.7,0-4.2-2.2-4.2-3.9v-5.7h1v5.7c0,2.5,1.6,3,3.2,3c1.6,0,3.2-0.5,3.2-3v-5.7h1V127.1
		z"/>
	<path d="M67.4,124c-0.1-1.6-1.4-2-2.9-2c-1.5,0-2.6,0.6-2.6,1.7c0,1.2,1.1,1.5,3.4,1.9c1.7,0.3,3.4,0.7,3.4,2.5
		c0,2.3-2.1,2.9-3.9,2.9c-2.4,0-4.1-0.8-4.3-3.3h1c0.2,2,1.5,2.4,3.3,2.4c1.4,0,2.9-0.4,2.9-1.9c0-1.4-1.7-1.6-3.4-1.9
		c-2.2-0.4-3.4-1-3.4-2.5c0-2,1.9-2.7,3.7-2.7c1.9,0,3.8,0.7,3.9,2.9H67.4z"/>
	<path d="M70.7,121.4h7.5v0.9h-6.5v3.2H78v0.9h-6.2v3.5h6.6v0.9h-7.6V121.4z"/>
	<path d="M80.4,121.4h4.6c2.7,0,4.1,1.7,4.1,4.7c0,2.6-1.4,4.7-4,4.7h-4.7V121.4z M81.3,129.8h3.5c1.7,0,3.1-0.9,3.1-3.8
		c0-2.5-1-3.8-3.1-3.8h-3.5V129.8z"/>
	<path d="M96,121.4h5.1c1.6,0,3,0.6,3,2.5c0,1-0.6,2-1.8,2.3v0c1.3,0.2,1.6,1.1,1.7,2.6c0,0.6,0.1,1.7,0.3,1.9h-1
		c-0.2-0.2-0.2-0.9-0.2-1.9c0-1.7-0.7-2.2-2.3-2.2h-3.8v4.1h-1V121.4z M96.9,125.7h4.1c1.1,0,2-0.4,2-1.8c0-1.4-1-1.6-1.9-1.6h-4.2
		V125.7z"/>
	<path d="M106.4,121.4h1v9.4h-1V121.4z"/>
	<path d="M110,121.4h5.3c1.8,0,2.6,1,2.6,2.4c0,0.9-0.5,1.7-1.6,2v0c1.2,0.2,2,1.1,2,2.3c0,2-1.7,2.7-3.1,2.7H110V121.4z M111,125.4
		h3.8c1.3,0,2.2-0.4,2.2-1.7c0-1.1-0.8-1.5-1.8-1.5H111V125.4z M111,129.8h4.1c1.3,0,2.2-0.5,2.2-1.8c0-1.4-0.8-1.7-2-1.7H111V129.8
		z"/>
	<path d="M125.2,121.1c2.7,0,5.1,1.6,5.1,4.9c0,3.3-2.4,4.9-5.1,4.9c-2.7,0-5.1-1.6-5.1-4.9C120.2,122.8,122.6,121.1,125.2,121.1z
		 M125.2,130.1c2.1,0,4-1.2,4-4c0-2.8-2-4-4-4c-2.1,0-4,1.2-4,4C121.2,128.9,123.2,130.1,125.2,130.1z"/>
	<path d="M141.8,127.2c-0.2,2.1-1.9,3.8-4.6,3.8c-3,0-5-1.9-5-4.9c0-2.1,1.3-4.9,5-4.9c2,0,4.3,0.9,4.6,3.4h-1
		c-0.3-1.8-1.9-2.5-3.6-2.5c-2.3,0-3.9,1.3-3.9,4c0,2.1,1.1,4,3.9,4c2.2,0,3.3-1.1,3.7-2.9H141.8z"/>
	<path d="M144.1,121.4h7.5v0.9h-6.5v3.2h6.2v0.9h-6.2v3.5h6.6v0.9h-7.6V121.4z"/>
	<path d="M153.9,121.4h1v9.4h-1V121.4z"/>
	<path d="M157.5,121.4h1.2l6.5,8h0v-8h1v9.4H165l-6.6-8h0v8h-1V121.4z"/>
	<path d="M168.9,121.4h7.5v0.9h-6.5v3.2h6.2v0.9h-6.2v3.5h6.6v0.9h-7.6V121.4z"/>
	<path d="M189.3,124c-0.1-1.6-1.4-2-2.9-2s-2.6,0.6-2.6,1.7c0,1.2,1.1,1.5,3.4,1.9c1.7,0.3,3.4,0.7,3.4,2.5c0,2.3-2.1,2.9-3.9,2.9
		c-2.4,0-4.1-0.8-4.3-3.3h1c0.2,2,1.5,2.4,3.3,2.4c1.4,0,2.9-0.4,2.9-1.9c0-1.4-1.7-1.6-3.4-1.9c-2.2-0.4-3.4-1-3.4-2.5
		c0-2,1.9-2.7,3.7-2.7c1.9,0,3.8,0.7,3.9,2.9H189.3z"/>
	<path d="M200.9,127.1c0,1.7-0.5,3.9-4.2,3.9s-4.2-2.2-4.2-3.9v-5.7h1v5.7c0,2.5,1.6,3,3.2,3s3.2-0.5,3.2-3v-5.7h1V127.1z"/>
	<path d="M203.6,121.4h5.1c1.4,0,2.8,0.7,2.8,2.7c0,1.8-1.2,2.7-3.3,2.7h-3.6v3.9h-1V121.4z M204.6,125.9h3.8c1.6,0,2.1-0.7,2.1-1.8
		c0-1.4-0.8-1.8-1.9-1.8h-3.9V125.9z"/>
	<path d="M213.6,121.4h5.1c1.4,0,2.8,0.7,2.8,2.7c0,1.8-1.2,2.7-3.3,2.7h-3.6v3.9h-1V121.4z M214.6,125.9h3.8c1.6,0,2.1-0.7,2.1-1.8
		c0-1.4-0.8-1.8-1.9-1.8h-3.9V125.9z"/>
	<path d="M223.5,121.4h1v8.5h5.9v0.9h-6.9V121.4z"/>
	<path d="M232.2,121.4h7.5v0.9h-6.5v3.2h6.2v0.9h-6.2v3.5h6.6v0.9h-7.6V121.4z"/>
	<path d="M251.6,121.4h1.4v9.4h-1v-8.1h0l-4.1,8.1H247l-4.1-8.1h0v8.1h-1v-9.4h1.4l4.2,8.1L251.6,121.4z"/>
	<path d="M255.7,121.4h7.5v0.9h-6.5v3.2h6.2v0.9h-6.2v3.5h6.6v0.9h-7.6V121.4z"/>
	<path d="M265.3,121.4h1.2l6.5,8h0v-8h1v9.4h-1.1l-6.6-8h0v8h-1V121.4z"/>
	<path d="M279.3,122.3h-3.7v-0.9h8.3v0.9h-3.7v8.5h-1V122.3z"/>
	<path d="M291.4,127.9h-4.9l-1.3,2.8h-1l4.3-9.4h1.1l4.3,9.4h-1.1L291.4,127.9z M289,122.3l-2.1,4.7h4.1L289,122.3z"/>
	<path d="M297.4,122.3h-3.7v-0.9h8.3v0.9h-3.7v8.5h-1V122.3z"/>
	<path d="M303.8,121.4h1v9.4h-1V121.4z"/>
	<path d="M312.1,121.1c2.7,0,5.1,1.6,5.1,4.9c0,3.3-2.4,4.9-5.1,4.9c-2.7,0-5.1-1.6-5.1-4.9C307,122.8,309.5,121.1,312.1,121.1z
		 M312.1,130.1c2.1,0,4-1.2,4-4c0-2.8-2-4-4-4s-4,1.2-4,4C308.1,128.9,310.1,130.1,312.1,130.1z"/>
	<path d="M319.4,121.4h1.2l6.5,8h0v-8h1v9.4H327l-6.6-8h0v8h-1V121.4z"/>
</g>
</svg>
