<?xml version="1.0" encoding="utf-8"?>
<!-- Generator: Adobe Illustrator 21.1.0, SVG Export Plug-In . SVG Version: 6.00 Build 0)  -->
<svg version="1.1" id="Layer_1" xmlns="http://www.w3.org/2000/svg" xmlns:xlink="http://www.w3.org/1999/xlink" x="0px" y="0px"
	 viewBox="0 0 432 114.5" style="enable-background:new 0 0 432 114.5;" xml:space="preserve">
<style type="text/css">
	.st0{fill:url(#SVGID_1_);}
	.st1{fill:#008AAB;}
	.st2{fill:url(#SVGID_2_);}
	.st3{fill:url(#SVGID_3_);}
	.st4{fill:url(#SVGID_4_);}
	.st5{fill:url(#SVGID_5_);}
	.st6{fill:none;}
	.st7{fill:#0082A3;}
	.st8{fill:url(#SVGID_6_);}
	.st9{fill:#00A6B7;}
	.st10{opacity:0.21;fill:#0082A3;}
	.st11{fill:url(#SVGID_7_);}
	.st12{fill:url(#SVGID_8_);}
	.st13{fill:url(#SVGID_9_);}
	.st14{fill:url(#SVGID_10_);}
	.st15{fill:url(#SVGID_11_);}
	.st16{fill:url(#SVGID_12_);}
	.st17{fill:url(#SVGID_13_);}
	.st18{fill:url(#SVGID_14_);}
	.st19{fill:url(#SVGID_15_);}
	.st20{fill:url(#SVGID_16_);}
	.st21{fill:url(#SVGID_17_);}
</style>
<g>
	<path d="M42.3,82.4h1.4l-4.3,12.9h-1.5l-3.9-11h0l-3.8,11h-1.5l-4.3-12.9h1.5l3.6,11.1h0l3.8-11.1h1.6l3.8,11.1h0L42.3,82.4z"/>
	<path d="M46,82.4h10.2v1.2h-8.9V88h8.6v1.2h-8.6V94h9v1.2H46V82.4z"/>
	<path d="M59.4,82.4h1.3v12.9h-1.3V82.4z"/>
	<path d="M76.1,92.8L76.1,92.8c-1.4,1.9-2.9,2.8-5.4,2.8c-4.4,0-6.7-2.7-6.7-6.8c0-3.9,2.6-6.8,6.9-6.8c3.6,0,5.9,2,6.2,4.4h-1.4
		c-0.5-2.2-2.5-3.2-4.8-3.2c-3.5,0-5.4,2.1-5.4,5.5c0,3.5,1.8,5.5,5.2,5.5c3.9,0,5.1-2.2,5.5-4.5h-4.7v-1.2h5.9v6.6h-1L76.1,92.8z"
		/>
	<path d="M80.7,82.4h1.3v5.4h9.3v-5.4h1.3v12.9h-1.3v-6.2h-9.3v6.2h-1.3V82.4z"/>
	<path d="M100,83.6h-5v-1.2h11.4v1.2h-5v11.6H100V83.6z"/>
	<path d="M128.1,82.4h1.9v12.9h-1.3V84.2h0l-5.7,11.1h-1.2l-5.7-11.1h0v11.1h-1.3V82.4h1.9l5.7,11.2L128.1,82.4z"/>
	<path d="M142.1,91.4h-6.8l-1.7,3.9h-1.4l5.8-12.9h1.5l5.8,12.9h-1.5L142.1,91.4z M138.7,83.7l-2.9,6.4h5.7L138.7,83.7z"/>
	<path d="M147.5,82.4h1.6l9,11h0v-11h1.3v12.9H158l-9-11h0v11h-1.3V82.4z"/>
	<path d="M171.6,91.4h-6.8l-1.7,3.9h-1.4l5.8-12.9h1.5l5.8,12.9h-1.5L171.6,91.4z M168.3,83.7l-2.9,6.4h5.7L168.3,83.7z"/>
	<path d="M188.8,92.8L188.8,92.8c-1.4,1.9-2.9,2.8-5.4,2.8c-4.4,0-6.7-2.7-6.7-6.8c0-3.9,2.6-6.8,6.9-6.8c3.6,0,5.9,2,6.2,4.4h-1.4
		c-0.5-2.2-2.5-3.2-4.8-3.2c-3.5,0-5.4,2.1-5.4,5.5c0,3.5,1.8,5.5,5.2,5.5c3.9,0,5.1-2.2,5.5-4.5h-4.7v-1.2h5.9v6.6h-1L188.8,92.8z"
		/>
	<path d="M193.7,82.4h10.2v1.2H195V88h8.6v1.2H195V94h9v1.2h-10.4V82.4z"/>
	<path d="M220.3,82.4h1.9v12.9h-1.3V84.2h0l-5.7,11.1h-1.2l-5.7-11.1h0v11.1h-1.3V82.4h1.9l5.7,11.2L220.3,82.4z"/>
	<path d="M225.9,82.4h10.2v1.2h-8.9V88h8.6v1.2h-8.6V94h9v1.2h-10.4V82.4z"/>
	<path d="M239.1,82.4h1.6l9,11h0v-11h1.3v12.9h-1.5l-9-11h0v11h-1.3V82.4z"/>
	<path d="M258.3,83.6h-5v-1.2h11.4v1.2h-5v11.6h-1.3V83.6z"/>
	<path d="M281.8,86.1c-0.2-2.2-2-2.8-4-2.8c-2.1,0-3.6,0.8-3.6,2.3c0,1.7,1.6,2.1,4.7,2.6c2.3,0.4,4.7,0.9,4.7,3.4
		c0,3.2-2.9,4-5.4,4c-3.3,0-5.6-1.1-5.8-4.6h1.3c0.2,2.7,2,3.4,4.5,3.4c1.9,0,3.9-0.5,3.9-2.6c0-2-2.3-2.2-4.7-2.6
		c-3.1-0.5-4.7-1.4-4.7-3.4c0-2.8,2.6-3.7,5.1-3.7c2.6,0,5.3,0.9,5.4,4H281.8z"/>
	<path d="M290.5,89.9l-5.8-7.5h1.7l4.7,6.1l4.7-6.1h1.7l-5.8,7.5v5.4h-1.3V89.9z"/>
	<path d="M308.3,86.1c-0.2-2.2-2-2.8-4-2.8c-2.1,0-3.6,0.8-3.6,2.3c0,1.7,1.6,2.1,4.7,2.6c2.3,0.4,4.7,0.9,4.7,3.4
		c0,3.2-2.9,4-5.4,4c-3.3,0-5.6-1.1-5.8-4.6h1.3c0.2,2.7,2,3.4,4.5,3.4c1.9,0,3.9-0.5,3.9-2.6c0-2-2.3-2.2-4.7-2.6
		c-3.1-0.5-4.7-1.4-4.7-3.4c0-2.8,2.6-3.7,5.1-3.7c2.6,0,5.3,0.9,5.4,4H308.3z"/>
	<path d="M316.5,83.6h-5v-1.2h11.4v1.2h-5v11.6h-1.3V83.6z"/>
	<path d="M325.4,82.4h10.2v1.2h-8.9V88h8.6v1.2h-8.6V94h9v1.2h-10.4V82.4z"/>
	<path d="M352,82.4h1.9v12.9h-1.3V84.2h0l-5.7,11.1h-1.2l-5.7-11.1h0v11.1h-1.3V82.4h1.9l5.7,11.2L352,82.4z"/>
</g>
<g>
	<g>
		<g>
			
				<linearGradient id="SVGID_1_" gradientUnits="userSpaceOnUse" x1="449.52" y1="818.9789" x2="468.3446" y2="792.9518" gradientTransform="matrix(0.9919 -0.1268 0.1268 0.9919 -170.8169 -705.4703)">
				<stop  offset="0" style="stop-color:#59595C"/>
				<stop  offset="3.717685e-02" style="stop-color:#6A6B6E"/>
				<stop  offset="9.751954e-02" style="stop-color:#808184"/>
				<stop  offset="0.1683" style="stop-color:#919295"/>
				<stop  offset="0.2551" style="stop-color:#9C9EA1"/>
				<stop  offset="0.3751" style="stop-color:#A3A5A8"/>
				<stop  offset="0.6888" style="stop-color:#A5A7AA"/>
				<stop  offset="0.7868" style="stop-color:#A1A3A6"/>
				<stop  offset="0.8898" style="stop-color:#959699"/>
				<stop  offset="0.9949" style="stop-color:#818184"/>
				<stop  offset="1" style="stop-color:#808083"/>
			</linearGradient>
			<path class="st0" d="M397.5,23.2l-3-0.4c0.1-0.2,0.2-0.3-0.3-0.3c0,0-0.1-0.1-0.1-0.1c-0.2-0.2-0.4-0.4-0.7-0.4c0,0,0,0,0,0
				c0,0,0,0,0,0c0,0,0,0-0.1,0c0,0,0,0,0,0c0,0,0,0,0,0c-0.2,0.1-0.5,0.2-0.8,0.3c0,0,0,0,0,0c0,0-0.1,0-0.1,0.1c0,0,0,0,0,0
				c-1,0.5-2,1.5-2.6,2.1c-0.1,0.1-0.2,0.2-0.3,0.3c-0.7,0.9-1.3,1.9-1.8,2.9c-1.1,2.1-2.1,4.4-2.9,6.8c-0.8,2.4-1.6,4.6-2.3,6.7
				c-0.2,0.6-0.4,1.1-0.7,1.7c-1.1,2.1-3.4,4.5-5.6,4.9l3,0.4c-0.1,0.2-0.2,0.3,0.3,0.3c0,0,0.1,0.1,0.1,0.1
				c0.2,0.2,0.4,0.4,0.7,0.4c0,0,0,0,0,0c0,0,0,0,0,0c0,0,0,0,0.1,0c0,0,0,0,0,0c0,0,0,0,0,0c0.2-0.1,0.5-0.2,0.8-0.3c0,0,0,0,0,0
				c0,0,0.1,0,0.1-0.1c0,0,0,0,0,0c1-0.5,2-1.5,2.6-2.1c0.1-0.1,0.2-0.2,0.3-0.3c0.7-0.9,1.3-1.9,1.8-2.9c1.1-2.1,2.1-4.4,2.9-6.8
				c0.8-2.4,1.6-4.6,2.3-6.7c0.2-0.6,0.4-1.1,0.7-1.7C393,26,395.2,23.6,397.5,23.2z"/>
			<g>
				<g>
					<path class="st1" d="M364,14.5c28.3,0.3,2.4,47.7,45.7,42.4c0.8-0.1,0.8-0.3,0-0.2c-29,0.3-2.9-47.3-45.7-42.4
						C363.1,14.3,363.1,14.5,364,14.5z"/>
				</g>
				
					<linearGradient id="SVGID_2_" gradientUnits="userSpaceOnUse" x1="472.257" y1="792.2016" x2="471.8887" y2="830.1355" gradientTransform="matrix(0.9919 -0.1268 0.1268 0.9919 -170.8169 -705.4703)">
					<stop  offset="0.2245" style="stop-color:#D0D1D2"/>
					<stop  offset="0.4858" style="stop-color:#C6C7C8"/>
					<stop  offset="0.9367" style="stop-color:#A9ABAE"/>
					<stop  offset="1" style="stop-color:#A5A7AA"/>
				</linearGradient>
				<path class="st2" d="M410,56.6c0,0,0.3,0,0.3,0s-0.4-0.1-0.7-0.2c-0.3-0.1-0.7-0.2-1.3-0.5c-1-0.5-2.5-1.3-3.5-2.8
					c-1.1-1.4-1.7-3.5-2.1-5.9c-0.3-2.5-0.3-5.3-0.4-8.4c-0.1-3.1-0.3-6.1-0.9-8.8c-0.3-1.3-0.7-2.5-1.3-3.7
					c-0.7-1.5-2.1-3.1-2.9-3.6c-1.2-0.8-2.7-1.1-3.9-0.7c0,0,0,0,0,0c-0.2,0.1-0.5,0.2-0.8,0.3c0,0,0,0,0,0c0,0-0.1,0-0.1,0.1
					c0,0,0,0,0,0c-0.6,0.3-1.3,0.8-1.8,1.3c1.1-0.8,2.1-1.5,3.4-1c0.1,0,0.2,0.1,0.3,0.1c1,0.5,1.7,1.6,1.9,1.8
					c5.6,9-0.8,27.9,9.6,31.5c1,0.4,1.9,0.5,2.4,0.4c0.6,0.1,1.1,0,1.5,0C409.7,56.7,409.9,56.7,410,56.6
					C409.9,56.7,409.9,56.7,410,56.6C409.9,56.7,409.9,56.7,410,56.6c0,0-0.1,0-0.1,0C410,56.6,410,56.6,410,56.6
					C410,56.6,410,56.6,410,56.6z"/>
			</g>
			<g>
				
					<linearGradient id="SVGID_3_" gradientUnits="userSpaceOnUse" x1="448.0466" y1="782.0107" x2="445.8368" y2="803.6181" gradientTransform="matrix(0.9919 -0.1268 0.1268 0.9919 -170.8169 -705.4703)">
					<stop  offset="0" style="stop-color:#D0D1D2"/>
					<stop  offset="0.3443" style="stop-color:#CDCECF"/>
					<stop  offset="0.6143" style="stop-color:#C3C4C6"/>
					<stop  offset="0.8582" style="stop-color:#B2B4B7"/>
					<stop  offset="1" style="stop-color:#A5A7AA"/>
				</linearGradient>
				<path class="st3" d="M363.6,14.5c0,0-0.3,0-0.3,0s0.4,0.1,0.7,0.2c0.3,0.1,0.7,0.2,1.3,0.5c1,0.5,2.5,1.3,3.5,2.8
					c1.1,1.4,1.7,3.5,2.1,5.9c0.3,2.5,0.3,5.3,0.4,8.4c0.1,3.1,0.3,6.1,0.9,8.8c0.3,1.3,0.7,2.5,1.3,3.7c0.7,1.5,2.1,3.1,2.9,3.6
					c1.2,0.8,2.7,1.1,3.9,0.7l0,0c0,0,0,0,0,0c0,0,0,0,0,0c0.2-0.1,0.5-0.2,0.8-0.3c0,0,0,0,0,0c0,0,0.1,0,0.1-0.1c0,0,0,0,0,0
					c0.6-0.3,1.3-0.8,1.8-1.3c-1.1,0.8-2.1,1.5-3.4,1c-0.1,0-0.2-0.1-0.3-0.1c-1-0.5-1.7-1.6-1.9-1.8c-5.6-9,0.8-27.9-9.6-31.5
					c-1-0.4-1.9-0.5-2.4-0.4c-0.6-0.1-1.1,0-1.5,0C363.9,14.4,363.7,14.4,363.6,14.5C363.7,14.4,363.7,14.4,363.6,14.5
					C363.7,14.4,363.7,14.4,363.6,14.5c0,0,0.1,0,0.1,0C363.7,14.4,363.6,14.4,363.6,14.5C363.6,14.4,363.6,14.5,363.6,14.5z"/>
			</g>
			
				<linearGradient id="SVGID_4_" gradientUnits="userSpaceOnUse" x1="465.8535" y1="780.3539" x2="466.8357" y2="835.4747" gradientTransform="matrix(0.9919 -0.1268 0.1268 0.9919 -170.8169 -705.4703)">
				<stop  offset="0" style="stop-color:#00BFD6"/>
				<stop  offset="1" style="stop-color:#008AAB"/>
			</linearGradient>
			<path class="st4" d="M409.6,56.9c0.9-0.1,0.9-0.3,0-0.3c-4.3,0-7.4-1.2-9.6-3.1C392.4,49,385.7,38.8,380,30
				C383,43.3,383.4,59.9,409.6,56.9z"/>
			<g>
				
					<linearGradient id="SVGID_5_" gradientUnits="userSpaceOnUse" x1="460.6754" y1="780.4462" x2="461.6575" y2="835.567" gradientTransform="matrix(0.9919 -0.1268 0.1268 0.9919 -170.8169 -705.4703)">
					<stop  offset="0" style="stop-color:#00BFD6"/>
					<stop  offset="1" style="stop-color:#008AAB"/>
				</linearGradient>
				<path class="st5" d="M394.4,42.9c-4.1-4.9-11-13-15.7-17.7c0.5,1.5,0.9,3.1,1.3,4.7c5.7,8.8,12.4,19,19.9,23.5
					C397,51,395.5,47.2,394.4,42.9z"/>
				<path class="st1" d="M394,41.3c-5.3-4.2-12.9-16.2-18.2-21.8c1.3,1.6,2.2,3.6,2.9,5.8c4.6,4.7,11.6,12.8,15.7,17.7
					C394.3,42.4,394.1,41.8,394,41.3z"/>
			</g>
			<g>
				<path class="st6" d="M402.9,55.3c1.6,0.7,3.6,1.1,5.9,1.2C406.7,56.4,404.7,56,402.9,55.3z"/>
				<path class="st7" d="M385.1,39.4c5.3,6,9.8,13.1,17.8,15.9c-1.1-0.5-2.1-1.1-3-1.8C392.4,49,385.7,38.8,380,30
					c0.9,4,1.6,8.3,2.8,12.3C382.6,38.8,382.9,36.9,385.1,39.4z"/>
				<path class="st1" d="M409.6,56.6c-0.2,0-0.5,0-0.7,0c0.1,0,0.1,0,0.2,0c-0.1,0-0.1,0-0.2,0c-2.3-0.1-4.3-0.5-5.9-1.2
					c-8-2.9-12.6-9.9-17.8-15.9c-2.2-2.5-2.5-0.6-2.3,2.9c2.8,9.2,8.5,16.7,26.8,14.6C410.5,56.8,410.5,56.6,409.6,56.6z"/>
			</g>
			<g>
				
					<linearGradient id="SVGID_6_" gradientUnits="userSpaceOnUse" x1="451.7039" y1="780.606" x2="452.6859" y2="835.7268" gradientTransform="matrix(0.9919 -0.1268 0.1268 0.9919 -170.8169 -705.4703)">
					<stop  offset="0" style="stop-color:#00BFD6"/>
					<stop  offset="1" style="stop-color:#008AAB"/>
				</linearGradient>
				<path class="st8" d="M393.6,39.5c-2.7-13.1-4.1-28.5-29.8-25.3c-0.8,0.1-0.8,0.3,0,0.2c0.5,0,0.9,0,1.4,0
					C378.3,14.2,384.9,32.5,393.6,39.5z"/>
				<path class="st9" d="M365.3,14.5c5.1,0.2,8.4,2.1,10.6,5c5.3,5.6,12.8,17.6,18.2,21.8c-0.1-0.6-0.3-1.2-0.4-1.7
					C384.9,32.5,378.3,14.2,365.3,14.5z"/>
			</g>
		</g>
		<g>
			<path class="st10" d="M386,32c-3.3-17.3-12.8-18.4-21.5-18c26.7,1.1,4.4,48.8,46.6,42.8C398.8,57.6,389.7,51.3,386,32z"/>
		</g>
	</g>
	<g>
		<linearGradient id="SVGID_7_" gradientUnits="userSpaceOnUse" x1="43.3827" y1="63.9639" x2="43.3827" y2="14.5739">
			<stop  offset="0" style="stop-color:#00BFD6"/>
			<stop  offset="1" style="stop-color:#008AAB"/>
		</linearGradient>
		<path class="st11" d="M57,65.6V41.6L44.3,65.6h-1.8L29.6,41.6v23.9h-3.6v-30h4.4l13,24.4l12.9-24.4h4.3v30H57z"/>
		<linearGradient id="SVGID_8_" gradientUnits="userSpaceOnUse" x1="79.0134" y1="63.9639" x2="79.0134" y2="14.5739">
			<stop  offset="0" style="stop-color:#00BFD6"/>
			<stop  offset="1" style="stop-color:#008AAB"/>
		</linearGradient>
		<path class="st12" d="M66.9,65.6v-30h23.9V39H70.6v9.6h18.1v3H70.6V62h20.5v3.6H66.9z"/>
		<linearGradient id="SVGID_9_" gradientUnits="userSpaceOnUse" x1="107.7435" y1="63.9639" x2="107.7435" y2="14.5739">
			<stop  offset="0" style="stop-color:#00BFD6"/>
			<stop  offset="1" style="stop-color:#008AAB"/>
		</linearGradient>
		<path class="st13" d="M105.8,65.6V39.1H94.1v-3.5h27.3v3.5h-11.8v26.5H105.8z"/>
		<linearGradient id="SVGID_10_" gradientUnits="userSpaceOnUse" x1="135.0321" y1="63.9639" x2="135.0321" y2="14.5739">
			<stop  offset="0" style="stop-color:#00BFD6"/>
			<stop  offset="1" style="stop-color:#008AAB"/>
		</linearGradient>
		<path class="st14" d="M148.4,65.6l-4.5-8.5h-18.1l-4.4,8.5h-4.3l15.9-30h3.6l16.1,30H148.4z M134.9,39.7l-7.6,14.3h15.2
			L134.9,39.7z"/>
		<linearGradient id="SVGID_11_" gradientUnits="userSpaceOnUse" x1="161.959" y1="63.9639" x2="161.959" y2="14.5739">
			<stop  offset="0" style="stop-color:#00BFD6"/>
			<stop  offset="1" style="stop-color:#008AAB"/>
		</linearGradient>
		<path class="st15" d="M171.3,50.6c-1.1,1.9-2.8,2.6-4.7,2.6c-4.3,0-5.4-3.1-9.2-3.1c-2.7,0-4.1,2-4.7,3.2v-3.4
			c1-1.9,2.8-2.6,4.7-2.6c4.3,0,5.2,3.1,9.2,3.1c2.6,0,4.1-2,4.7-3.2V50.6z"/>
		<linearGradient id="SVGID_12_" gradientUnits="userSpaceOnUse" x1="186.6101" y1="63.9639" x2="186.6101" y2="14.5739">
			<stop  offset="0" style="stop-color:#00BFD6"/>
			<stop  offset="1" style="stop-color:#008AAB"/>
		</linearGradient>
		<path class="st16" d="M196.4,41.6c-2.6-2.3-6.1-3.2-9.6-3.2c-3.3,0-8.1,1-8.1,5.2c0,2.1,1.1,3.3,2.7,4c1.7,0.8,4,0.9,6,1.2
			c2.8,0.3,5.4,0.6,7.5,1.5c3,1.2,4.6,3.8,4.6,7c0,7-6.9,8.9-12.5,8.9c-4.9,0-10.3-1.4-13.2-5.7l2.7-2.5c2.4,3.5,6.5,4.9,10.6,4.9
			c3.6,0,8.7-0.8,8.7-5.4c0-4.1-4-4.8-7.4-5.1c-2.6-0.3-5.2-0.5-7.7-1.3c-3.4-1.2-5.9-3.2-5.9-7.1c0-6.5,6.6-8.8,11.9-8.8
			c4.1,0,8.4,0.8,11.7,3.4L196.4,41.6z"/>
		<linearGradient id="SVGID_13_" gradientUnits="userSpaceOnUse" x1="225.6084" y1="63.9639" x2="225.6084" y2="14.5739">
			<stop  offset="0" style="stop-color:#00BFD6"/>
			<stop  offset="1" style="stop-color:#008AAB"/>
		</linearGradient>
		<path class="st17" d="M235.4,65.6l-9.5-24.9l-9.7,24.9H213l-12-30h4.4l9.2,24.1l9.4-24.1h3.8l9.1,24.1l9-24.1h4.3l-12,30H235.4z"
			/>
		<linearGradient id="SVGID_14_" gradientUnits="userSpaceOnUse" x1="256.0313" y1="63.9639" x2="256.0313" y2="14.5739">
			<stop  offset="0" style="stop-color:#00BFD6"/>
			<stop  offset="1" style="stop-color:#008AAB"/>
		</linearGradient>
		<path class="st18" d="M254.1,65.6v-30h3.8v30H254.1z"/>
		<linearGradient id="SVGID_15_" gradientUnits="userSpaceOnUse" x1="275.7492" y1="63.9639" x2="275.7492" y2="14.5739">
			<stop  offset="0" style="stop-color:#00BFD6"/>
			<stop  offset="1" style="stop-color:#008AAB"/>
		</linearGradient>
		<path class="st19" d="M273.8,65.6V39.1h-11.8v-3.5h27.3v3.5h-11.8v26.5H273.8z"/>
		<linearGradient id="SVGID_16_" gradientUnits="userSpaceOnUse" x1="307.0095" y1="63.9639" x2="307.0095" y2="14.5739">
			<stop  offset="0" style="stop-color:#00BFD6"/>
			<stop  offset="1" style="stop-color:#008AAB"/>
		</linearGradient>
		<path class="st20" d="M322.1,61c-2.2,2.9-7,5.3-13,5.3c-9.6,0-17.2-5.6-17.2-15.6c0-9,6.1-15.5,18-15.5c6.2,0,10.8,2.4,12.5,4.8
			l-2.4,2.9c-1.8-2.6-5.5-4.2-10.5-4.2c-8.9,0-13.8,4.9-13.8,12c0,7.5,5.6,12.1,13.4,12.1c4.7,0,8.5-1.5,10.7-4.4L322.1,61z"/>
		<linearGradient id="SVGID_17_" gradientUnits="userSpaceOnUse" x1="340.9682" y1="63.9639" x2="340.9682" y2="14.5739">
			<stop  offset="0" style="stop-color:#00BFD6"/>
			<stop  offset="1" style="stop-color:#008AAB"/>
		</linearGradient>
		<path class="st21" d="M350.9,65.6V51.9H331v13.7h-3.8v-30h3.8v12.6h19.9V35.6h3.8v30H350.9z"/>
	</g>
	<g>
		<path d="M360.2,59.7h4.5v0.5h-2v5.3h-0.5v-5.3h-2V59.7z"/>
		<path d="M365.8,59.7h0.8l2,5l2-5h0.8v5.7h-0.5v-5h0l-2,5h-0.5l-2-5h0v5h-0.5V59.7z"/>
	</g>
</g>
</svg>
